<svg xmlns="http://www.w3.org/2000/svg" viewBox="0 0 7655.9 944.27"><defs><style>.cls-1,.cls-4{fill:#f204a1;}.cls-2{font-size:6.84px;fill:#fff;stroke:#fff;font-family:MyriadPro-Regular, Myriad Pro;}.cls-2,.cls-4{stroke-miterlimit:10;}.cls-3{fill:#f20ab1;}.cls-4{stroke:#25ffe2;}</style></defs><g id="Layer_2" data-name="Layer 2"><g id="Layer_1-2" data-name="Layer 1"><path class="cls-1" d="M1225.89,886.57l-31.09-54.16-82.41-143.55-41.69-72.6-19.36-33.73-7.55-13.14-1.47-3.7.64-.21a276.74,276.74,0,0,0,182.11-318s0,0,0,0c-25.74-124.68-135.49-218.64-267.45-220.1H729.72v0H475.54L505.91,80l32.6,56.47,44.11,76.4,20,34.65v0H856.81v0h97.69l1.44,0a56.18,56.18,0,0,1-1.44,112.34H667.76l30.56,53.22,32.8,57.13,60.29,105,4.22,7.34,10.35,18,50.69,88.3L984.52,911.57H1240l-14.29-24.89Z"/><path class="cls-1" d="M729.71,27.35v0H957.61c132,1.46,241.71,95.42,267.45,220.1,0,0,0,0,0,0a276.41,276.41,0,0,1-182.11,318l-.64.21,1.47,3.7,7.55,13.14,19.36,33.73,41.69,72.6,82.41,143.55,31.09,54.16-.18.11L1240,911.57H984.52L856.67,688.86,806,600.56l-10.35-18-4.22-7.34-60.29-105-32.8-57.13-30.56-53.22H954.49a56.18,56.18,0,0,0,1.44-112.34l-1.44,0H856.8v0H602.64v0l-20-34.65-44.11-76.4L505.91,80l-30.37-52.6H729.71m0-16.28H475.54a16.28,16.28,0,0,0-14.1,24.42L491.81,88.1l32.6,56.46L568.52,221l20,34.61a16.32,16.32,0,0,0,14.14,8.2H856.81l.73,0h97l1.09,0a39.9,39.9,0,0,1-1.09,79.78H667.76a16.28,16.28,0,0,0-14.12,24.38l30.56,53.22L717,478.28l60.29,105,4.22,7.35,10.35,18L842.55,697l127.86,222.7a16.26,16.26,0,0,0,14.11,8.18H1240a16.28,16.28,0,0,0,14.12-24.39l-13-22.62a16.63,16.63,0,0,0-1.13-2.38l-31.1-54.16L1126.5,680.76l-41.68-72.61-19.36-33.71A293,293,0,0,0,1241,244.2l0-.13a290.17,290.17,0,0,0-36.09-91.82A292.15,292.15,0,0,0,958.09,11.09H730.44l-.73,0Z"/><polygon class="cls-1" points="4158.87 586.18 4085.49 366.82 4047.95 254.57 4028.34 195.96 3993.59 92.05 3993.59 92.02 3974.3 34.37 3658.58 34.37 3585.17 254.49 3547.7 366.83 3474.29 586.95 3436.33 700.77 3363.3 919.74 3456.81 919.84 3594.03 920 3634.7 798.41 3667.36 700.77 3705.43 586.95 3779.06 366.83 3816.64 254.49 3816.64 254.49 3816.64 254.49 3854.11 366.83 3856.67 374.51 3856.67 374.51 3927.12 585.76 3927.52 586.95 3965.48 700.77 4038.77 920.5 4270.77 920.76 4197.19 700.77 4158.87 586.18"/><path class="cls-1" d="M3974.3,34.37,3993.59,92v0L4028.34,196,4048,254.57l37.55,112.25,73.37,219.36,38.32,114.59,73.58,220-232-.26-73.29-219.73-38-113.82-.4-1.19-70.45-211.25h0l-2.56-7.68-37.47-112.34h0l-37.58,112.34L3705.43,587l-38.06,113.82-32.67,97.64L3594,920l-137.22-.16-93.51-.1,73-219,38-113.82,73.41-220.12,37.47-112.34,73.41-220.12H3974.3m0-16.28H3658.58a16.28,16.28,0,0,0-15.44,11.13l-73.41,220.12-37.47,112.34L3458.85,581.8l-38,113.81-73,219A16.28,16.28,0,0,0,3363.28,936l93.51.1,137.22.16h0a16.28,16.28,0,0,0,15.44-11.12l40.67-121.59,32.66-97.64,38.07-113.82L3794.5,372l22.12-66.12L3838.67,372l2.49,7.48.06.21,70.46,211.24.41,1.22L3950,705.92l73.29,219.73a16.27,16.27,0,0,0,15.42,11.13l232,.26h0a16.28,16.28,0,0,0,15.44-21.45l-73.58-220L4174.31,581l-73.38-219.36L4063.39,249.4l-19.61-58.61-34.6-103.46-.15-.47-19.3-57.66a16.26,16.26,0,0,0-15.43-11.11Z"/><polygon class="cls-1" points="5482.81 357.41 5519.31 247.84 5593.27 25.83 5360.3 25.83 5357.94 32.94 5286.63 247.62 5250.15 357.41 5183.18 559.02 5116.02 357.41 5079.37 247.42 5005.89 26.82 5005.89 26.82 5005.56 25.83 4773.28 25.83 4773.21 26.04 4699.86 246.83 4663.27 357 4663.13 357.41 4619.59 488.46 4619.59 488.47 4600.48 546.01 4595.81 560.08 4528.16 357 4491.33 246.46 4417.83 25.83 4184.89 25.83 4204.19 83.49 4204.19 83.52 4238.94 187.42 4258.54 246.04 4258.56 246.04 4295.42 357 4368.57 577.2 4376.57 601.27 4406.01 689.91 4472.38 889.72 4479.15 910.11 4479.54 910.11 4571.5 910.28 4711.48 910.53 4712.02 908.93 4712.02 908.93 4723.19 875.39 4784.85 690.32 4784.98 689.91 4822.26 578.02 4822.37 577.68 4889.51 376.15 4956.48 577.78 4956.64 578.26 4964.42 601.68 4993.73 689.91 4993.87 690.32 5060.24 890.12 5066.72 909.63 5066.72 909.63 5067.08 910.72 5158.86 910.79 5209.77 910.84 5298.42 910.92 5299.41 907.93 5371.91 690.32 5409.27 578.15 5482.81 357.41"/><path class="cls-1" d="M5593.27,25.83l-74,222-36.5,109.57-73.54,220.74-37.36,112.17-72.49,217.61-1,3-88.65-.08-50.91-.05-91.78-.07-.36-1.09h0l-6.48-19.51-66.37-199.8-.14-.41-29.31-88.23-7.78-23.42-.15-.48-67-201.63-67.14,201.53-.11.34L4785,689.91l-.13.41L4723.19,875.4,4712,908.93h0l-.53,1.6-140-.25-92-.17h-.39l-6.77-20.39L4406,689.91l-29.44-88.64-8-24.07L4295.42,357l-36.86-111h0l-19.6-58.62-34.75-103.9v0l-19.3-57.66h232.94l73.5,220.63L4528.16,357l67.65,203.08,4.67-14.07,19.11-57.54h0l43.54-131,.14-.41,36.59-110.17L4773.21,26l.07-.21h232.28l.33,1h0l73.48,220.6,36.65,110L5183.18,559l67-201.61,36.48-109.79,71.31-214.68,2.36-7.11h233m0-16.28h-233a16.27,16.27,0,0,0-15.45,11.16l-2.36,7.11-71.31,214.67L5234.7,352.28l-51.54,155.17-51.7-155.19-36.64-110L5021.4,21.88a2.09,2.09,0,0,0-.08-.23l-.32-1a16.29,16.29,0,0,0-15.44-11.12H4773.28a16.29,16.29,0,0,0-15.51,11.31l0,.12L4684.41,241.7l-36.59,110.17-.13.39-43.55,131.07c0,.11-.07.22-.11.34l-8.25,24.83L4543.6,351.86l-36.82-110.55-73.5-220.62a16.29,16.29,0,0,0-15.45-11.14H4184.89A16.28,16.28,0,0,0,4169.46,31l19.14,57.2a4.42,4.42,0,0,0,.15.48l34.75,103.91,19.61,58.61c.07.22.14.43.22.64L4280,362.13l73.15,220.21,8,24.07L4390.56,695l66.37,199.81,6.77,20.39a16.29,16.29,0,0,0,15.45,11.15h.39l91.93.17,140,.25h0a16.28,16.28,0,0,0,15.44-11.12l.53-1.6c0-.07.05-.14.07-.21l11.11-33.34,61.65-185.08.14-.41,37.28-111.89,0-.09.1-.31,51.64-155L4941,582.92l.15.45,7.78,23.44L4978.28,695l.15.44,66.36,199.78,6.41,19.29c0,.05,0,.11.05.16l.36,1.09a16.27,16.27,0,0,0,15.45,11.2l91.78.07,50.92,0,88.64.08h0a16.28,16.28,0,0,0,15.44-11.12l1-3,72.5-217.63,37.36-112.16,73.54-220.75L5534.76,253l74-222a16.28,16.28,0,0,0-15.45-21.43Z"/><path class="cls-1" d="M3351.21,359.29h-.15c0-.07,0-.14.05-.2h0a278.6,278.6,0,0,0,0-112.33v0A276.41,276.41,0,0,0,3091.74,26.84h0c-2.68-.11-5.38-.19-8.08-.21H3022v0H2672c10.37,6.74,16.77,13.13,26.39,21,28.59,23.56,49.83,52.47,69.08,84.06q7.37,12.08,13.62,24.66a326,326,0,0,1,21.78,56.26q3.29,11.55,5.72,23.36l1.8,8.72v0h0l.07.33.4,1.65h269.69l1.45,0h.67v0a56.17,56.17,0,0,1-2.12,112.31H2810a1.18,1.18,0,0,1,0,.2h-7.21L2802.62,487l-.11,92.15h0l-.13,114-.27,218.82,220,.26V579.42h58.52a276.11,276.11,0,0,0,84-13l2.57-.83,1.92-.64A276.75,276.75,0,0,0,3351.21,359.29Z"/><path class="cls-1" d="M2672,26.61h350v0h61.64c2.7,0,5.4.1,8.08.21h0a276.41,276.41,0,0,1,259.37,219.89v0a278.6,278.6,0,0,1,0,112.33h0c0,.06,0,.13-.05.2h.15A276.75,276.75,0,0,1,3169.1,565l-1.92.64-2.57.83a276.11,276.11,0,0,1-84,13h-58.52V912.31l-220-.26.27-218.82.13-114h0l.11-92.15.16-127.75H2810a1.18,1.18,0,0,0,0-.2h270.58a56.17,56.17,0,0,0,2.12-112.31v0H3082l-1.45,0H2810.84l-.4-1.65-.07-.33h0v0l-1.8-8.72q-2.45-11.82-5.72-23.36a326,326,0,0,0-21.78-56.26q-6.26-12.57-13.62-24.66c-19.25-31.59-40.49-60.5-69.08-84.06-9.62-7.92-16-14.31-26.39-21m0-16.28a16.28,16.28,0,0,0-8.88,29.93,151.64,151.64,0,0,1,17,13.26c2.47,2.13,5,4.32,7.92,6.71,23.33,19.22,43.54,43.88,65.53,80,4.64,7.62,9,15.51,12.94,23.44a310.48,310.48,0,0,1,20.7,53.46c2.07,7.29,3.9,14.76,5.44,22.21l1.7,8.25c.05.25.1.51.16.77l0,.12c0,.15.07.31.11.47l.4,1.65A16.29,16.29,0,0,0,2810.84,263h269.69l1,0h.49a39.9,39.9,0,0,1-1.52,79.77H2810a17.37,17.37,0,0,0-2.62.2h-4.55a16.28,16.28,0,0,0-16.28,16.26L2786.34,487l-.11,92.15-.13,114L2785.83,912a16.29,16.29,0,0,0,16.26,16.3l220,.26h0a16.27,16.27,0,0,0,16.28-16.28V595.7h42.24a292.26,292.26,0,0,0,88.92-13.77c.88-.27,1.79-.57,2.69-.87l1.7-.56.34-.12a293,293,0,0,0,192.88-217.79,16.46,16.46,0,0,0,.3-2.19,295.21,295.21,0,0,0-.4-116.94v0A292.31,292.31,0,0,0,3092.39,10.57h-.11c-3-.11-5.74-.18-8.45-.21h-61.08c-.25,0-.49,0-.74,0Z"/><path class="cls-1" d="M1400.82,374.59a329,329,0,0,1-76.47,152.11,331.38,331.38,0,0,1-66.4,57.2h623.22V363.77h-478.3Q1401.93,369.22,1400.82,374.59Z"/><path class="cls-1" d="M1881.17,363.77V583.9H1258a330.8,330.8,0,0,0,114.27-127.48,327.77,327.77,0,0,0,28.6-81.83q1.11-5.38,2-10.82h478.3m0-16.27h-478.3a16.28,16.28,0,0,0-16,13.51c-.61,3.54-1.26,7-1.94,10.28a313.91,313.91,0,0,1-135.83,199,16.28,16.28,0,0,0,8.9,29.92h623.22a16.28,16.28,0,0,0,16.28-16.28V363.77a16.27,16.27,0,0,0-16.28-16.27Z"/><polygon class="cls-1" points="1343.89 694.23 1344.04 694.48 1293.15 694.48 1424.08 912.03 1557.22 912.2 1610.73 912.26 1721.4 912.39 1830.85 912.39 1830.85 912.14 1881.59 912.14 1881.59 698.16 1880.76 694.23 1343.89 694.23"/><path class="cls-1" d="M1880.76,694.23l.83,3.93v214h-50.74v.25H1721.4l-110.67-.13-53.51-.07L1424.08,912,1293.15,694.48H1344l-.15-.25h536.87m0-16.28H1343.89a16.52,16.52,0,0,0-2.82.25h-47.92a16.28,16.28,0,0,0-14,24.67l130.93,217.56a16.29,16.29,0,0,0,13.93,7.88l133.14.16,53.51.07,110.67.13h109.47a16.93,16.93,0,0,0,2.87-.25h47.87a16.28,16.28,0,0,0,16.28-16.28v-214a15.78,15.78,0,0,0-.35-3.36l-.83-3.93A16.28,16.28,0,0,0,1880.76,678Z"/><path class="cls-1" d="M1829.92,26.53H1609.8v0H1260.44a330,330,0,0,1,142.11,206.06l1.8,5.38v3.46q.48,2.61.93,5.22h50.82c0,.08,0,.16.05.23h427.43V26.75h-53.66Zm-166.46.24h0Z"/><path class="cls-1" d="M1829.92,26.53v.22h53.66V246.9H1456.15c0-.07,0-.15-.05-.23h-50.82q-.45-2.61-.93-5.22V238l-1.8-5.38A330.81,330.81,0,0,0,1260.44,26.55H1609.8v0h220.12m-169.26.24h0m169.26-16.52H1609.8l-.74,0H1260.44a16.28,16.28,0,0,0-8.91,29.91,315.39,315.39,0,0,1,97,100.4,311.11,311.11,0,0,1,38.06,95.49,17.15,17.15,0,0,0,.47,1.7l1,2.86v.82a16.3,16.3,0,0,0,.28,3c.29,1.5.57,3.11.88,4.91a16.28,16.28,0,0,0,16,13.55h48.11a16.76,16.76,0,0,0,2.76.23h427.43a16.28,16.28,0,0,0,16.28-16.28V26.75a16.28,16.28,0,0,0-16.28-16.28h-51a17.16,17.16,0,0,0-2.7-.22Z"/><path class="cls-1" d="M2350,247.07h271.48q-1.17-5.69-2.58-11.29C2589,116.5,2481.57,28,2353.28,26.94h-4.68c-132.3,1.1-242.44,95.19-268.23,220.12h0a278.55,278.55,0,0,0,0,112.32h0a274.79,274.79,0,0,0,45.9,104.66q2,2.71,4,5.39a275.89,275.89,0,0,0,213.59,110l1.77,0,3.57,0h3.48a57.26,57.26,0,0,1-7.31,113.82h-272.8c.65,3.09,1.36,6.17,2.12,9.22,29,116.8,132.35,204.23,256.9,209.2h0c3.71.14,7.45.22,11.2.22q5.3,0,10.53-.2h.12c1.59-.06,3.17-.14,4.76-.22l2.27-.14,3.81-.26,2-.17,2.53-.22c1.1-.1,2.18-.21,3.27-.33q3.54-.36,7.06-.83l2.34-.32q8.9-1.24,17.63-3.06l2-.43,1-.21,2.18-.49c1.1-.25,2.21-.51,3.31-.78s2.39-.58,3.57-.88a275.59,275.59,0,0,0,114.61-60.78q3.15-2.77,6.22-5.67h0l1.53-1.45c1-1,2-1.94,3-2.93l1.49-1.48c2-2,4-4,5.88-6q1.92-2,3.81-4.13c1.3-1.44,2.58-2.89,3.86-4.36s2.35-2.74,3.5-4.12q8.46-10.15,15.94-21.11,1.28-1.85,2.52-3.72a276.4,276.4,0,0,0,16.9-29.4q1.26-2.55,2.47-5.11,3.78-8.08,7.08-16.44.9-2.28,1.75-4.59,1.13-3,2.19-6.08c.54-1.57,1.07-3.16,1.59-4.75a273.83,273.83,0,0,0,7.49-27.93,279.09,279.09,0,0,0,.31-113.82,275.2,275.2,0,0,0-45.9-104.66q-1.95-2.73-4-5.4a275.87,275.87,0,0,0-218.18-110h2.86A56.2,56.2,0,0,1,2350,247.07Z"/><path class="cls-1" d="M2353.28,26.94C2481.57,28,2589,116.5,2618.93,235.77q1.41,5.59,2.58,11.29H2350a56.2,56.2,0,0,0-1.85,112.32h-2.86a275.87,275.87,0,0,1,218.18,110q2,2.67,4,5.4a276.52,276.52,0,0,1,38.1,246.41c-.52,1.59-1.05,3.18-1.59,4.75q-1.07,3.06-2.19,6.08-.86,2.31-1.75,4.59-3.28,8.35-7.08,16.44-1.22,2.57-2.47,5.11a276.4,276.4,0,0,1-16.9,29.4q-1.24,1.88-2.52,3.72-7.46,10.95-15.94,21.11c-1.15,1.38-2.32,2.76-3.5,4.12s-2.56,2.92-3.86,4.36-2.53,2.77-3.81,4.13c-1.93,2-3.88,4.06-5.88,6-.49.5-1,1-1.49,1.49-1,1-2,2-3,2.93L2532,837h0c-2.05,1.92-4.12,3.82-6.22,5.67a275.59,275.59,0,0,1-114.61,60.78c-1.18.3-2.37.6-3.57.88s-2.21.53-3.31.78l-2.18.49-1,.21-2,.43q-8.73,1.82-17.63,3.06l-2.34.32q-3.53.46-7.06.83c-1.09.12-2.17.23-3.27.32-.84.09-1.68.16-2.53.23l-2,.17-3.81.26-2.27.14c-1.59.08-3.17.16-4.76.22h-.12q-5.24.19-10.53.2c-3.75,0-7.49-.08-11.2-.22h0c-124.55-5-227.87-92.4-256.9-209.2-.76-3-1.47-6.13-2.12-9.22h272.8a57.26,57.26,0,0,0,7.31-113.82h-3.48l-3.57,0-1.77,0a275.89,275.89,0,0,1-213.59-110q-2-2.67-4-5.39a274.79,274.79,0,0,1-45.9-104.66h0a278.55,278.55,0,0,1,0-112.32h0C2106.16,122.13,2216.3,28,2348.6,26.94h4.68m0-16.28h-4.82a292.62,292.62,0,0,0-284,233.11c0,.07,0,.15,0,.22a294.8,294.8,0,0,0,0,118.69c0,.08,0,.15,0,.22A291.19,291.19,0,0,0,2113,473.55c1.4,1.95,2.81,3.86,4.19,5.69a295.5,295.5,0,0,0,97.91,83.19,289.3,289.3,0,0,0,128.26,33.26h.9l.95,0h.06l3.74,0h2.24a41.1,41.1,0,0,1,33.21,35.06,43.4,43.4,0,0,1,.33,5.25,41.23,41.23,0,0,1-39.72,40.95H2072.53a16.28,16.28,0,0,0-15.93,19.67c.72,3.39,1.48,6.67,2.25,9.76a290.45,290.45,0,0,0,36.94,86.07A292,292,0,0,0,2330.9,928h.22c4,.15,7.88.23,11.67.23,3.63,0,7.29-.07,10.88-.2h.35c1.51,0,3.12-.13,5.07-.24l2.37-.14h0l4.05-.28,2.12-.18c.91-.07,1.81-.15,2.71-.24,1.15-.1,2.28-.22,3.42-.34,2.38-.24,4.9-.54,7.45-.88l2.12-.28.31,0,.08,0c6.22-.87,12.5-2,18.66-3.24l2.18-.46.12,0,.94-.21,2.27-.5,3.52-.83c1.25-.29,2.53-.61,3.82-.94a293.45,293.45,0,0,0,121.34-64.35c2.18-1.94,4.4-4,6.57-6l0,0,1.2-1.14.37-.35c1.2-1.14,2.25-2.16,3.24-3.14l1.57-1.56c2-2,4-4.09,6.21-6.39,1.45-1.54,2.76-3,4-4.36,1.49-1.64,2.82-3.15,4.09-4.62,1.14-1.31,2.35-2.74,3.7-4.35,6-7.2,11.67-14.7,16.87-22.33h0c1.09-1.58,1.92-2.81,2.7-4a295.14,295.14,0,0,0,17.88-31.12c.88-1.77,1.76-3.59,2.62-5.42,2.69-5.72,5.21-11.57,7.5-17.4.62-1.58,1.23-3.17,1.86-4.85.75-2,1.51-4.14,2.3-6.43.6-1.7,1.16-3.41,1.69-5v-.05a290.32,290.32,0,0,0,7.93-29.59,295.15,295.15,0,0,0,.33-120.49,291.34,291.34,0,0,0-48.61-110.86c-1.32-1.84-2.74-3.77-4.21-5.72a295.23,295.23,0,0,0-99.93-84.22,290.73,290.73,0,0,0-62.62-23.59,293.72,293.72,0,0,0-63.79-8.63l-.89-.07H2349a39.72,39.72,0,0,1-37.68-35.2,41.06,41.06,0,0,1-.27-4.68,40.08,40.08,0,0,1,39.27-39.9h271.22a16.28,16.28,0,0,0,15.95-19.56c-.81-3.93-1.73-8-2.74-12a290.5,290.5,0,0,0-38.22-87.7A292.11,292.11,0,0,0,2353.41,10.66Z"/><polygon points="6039.72 750.03 6039.72 766.33 6030.35 750.03 6039.72 750.03"/><polygon points="6039.72 750.03 6039.72 766.33 6030.35 750.03 6039.72 750.03"/><polygon class="cls-1" points="813.63 922.57 541.57 920.16 16.28 20.95 310.19 23.55 813.63 922.57"/><path class="cls-1" d="M16.28,21l293.91,2.6,503.44,899-272.06-2.41L16.28,21m0-16.28A16.28,16.28,0,0,0,2.22,29.16L527.51,928.37a16.28,16.28,0,0,0,13.91,8.07l272.06,2.41h.15a16.28,16.28,0,0,0,14.2-24.23l-503.44-899a16.28,16.28,0,0,0-14.06-8.32L16.42,4.67Z"/><text class="cls-2" transform="translate(6865.08 287.97)">tt</text><path class="cls-1" d="M7050.89,855.4v59.91h-281V867.93l151.4-143.78c37-35.39,43.57-57.72,43.57-79,0-34.86-24-55-70.8-55-37,0-68.08,12.53-89.31,39.76l-49.56-38.12c29.41-39.76,82.23-63.18,144.86-63.18,82.78,0,136.15,41.94,136.15,109.47,0,37-10.35,70.8-63.17,120.35L6871.17,855.4Z"/><path class="cls-1" d="M6900,528.64c82.78,0,136.15,41.94,136.15,109.47,0,37-10.35,70.8-63.17,120.35L6871.17,855.4h179.72v59.91h-281V867.93l151.4-143.78c37-35.39,43.57-57.72,43.57-79,0-34.86-24-55-70.8-55-37,0-68.08,12.53-89.31,39.76l-49.56-38.12c29.41-39.76,82.23-63.18,144.86-63.18m0-18.31c-68.23,0-126.4,25.73-159.59,70.59a18.32,18.32,0,0,0,3.56,25.41l49.56,38.13a18.33,18.33,0,0,0,25.61-3.26c16.92-21.7,42.11-32.7,74.87-32.7,18.57,0,32.95,3.62,41.58,10.46,7.34,5.82,10.9,14.4,10.9,26.23,0,14.26-2.93,32.28-37.88,65.7L6757.26,854.65a18.32,18.32,0,0,0-5.7,13.28v47.38a18.31,18.31,0,0,0,18.31,18.31h281a18.31,18.31,0,0,0,18.31-18.31V855.4a18.31,18.31,0,0,0-18.31-18.31H6917l68.61-65.31c57.2-53.67,68.92-92.25,68.92-133.67,0-19.33-3.83-37.29-11.37-53.37a114.32,114.32,0,0,0-32.55-41c-27.36-21.86-65.59-33.41-110.55-33.41Z"/><path class="cls-3" d="M7152.86,873.92c0-27.23,20.15-45.2,44.66-45.2s44.65,18,44.65,45.2c0,26.14-20.15,45.2-44.65,45.2S7152.86,900.06,7152.86,873.92Z"/><path class="cls-3" d="M7197.52,828.72c24.5,0,44.65,18,44.65,45.2,0,26.14-20.15,45.2-44.65,45.2s-44.66-19.06-44.66-45.2c0-27.23,20.15-45.2,44.66-45.2m0-18.32A63,63,0,0,0,7153.21,828c-12,11.74-18.67,28-18.67,45.93,0,35.62,27.66,63.52,63,63.52s63-27.9,63-63.52c0-17.88-6.63-34.19-18.67-45.93a63,63,0,0,0-44.3-17.59Z"/><path class="cls-1" d="M7319,724.7c0-125.26,68.62-196.06,159-196.06,90.95,0,159.57,70.8,159.57,196.06S7569,920.76,7478,920.76C7387.61,920.76,7319,850,7319,724.7Zm247.25,0c0-92-35.95-134.52-88.23-134.52-51.73,0-87.68,42.48-87.68,134.52s35.95,134.52,87.68,134.52C7530.29,859.22,7566.24,816.74,7566.24,724.7Z"/><path class="cls-1" d="M7478,528.64c90.95,0,159.57,70.8,159.57,196.06S7569,920.76,7478,920.76c-90.4,0-159-70.8-159-196.06s68.62-196.06,159-196.06m0,330.58c52.28,0,88.23-42.48,88.23-134.52S7530.29,590.18,7478,590.18c-51.74,0-87.68,42.48-87.68,134.52s35.94,134.52,87.68,134.52m0-348.89c-25.15,0-48.86,4.92-70.48,14.62a161,161,0,0,0-56.86,42.86c-32.71,38.34-50,92.59-50,156.89s17.29,118.55,50,156.89a161,161,0,0,0,56.86,42.86c21.62,9.7,45.33,14.62,70.48,14.62s49.09-4.92,70.78-14.61a161.2,161.2,0,0,0,57-42.86c32.76-38.31,50.08-92.56,50.08-156.9s-17.32-118.59-50.08-156.9a161.09,161.09,0,0,0-57-42.86c-21.69-9.69-45.5-14.61-70.78-14.61Zm0,330.57c-60.35,0-69.36-72.8-69.36-116.2s9-116.2,69.36-116.2c21,0,36.95,8.16,48.73,25,13.86,19.75,21.18,51.31,21.18,91.25s-7.32,71.5-21.18,91.25C7515,832.74,7499,840.9,7478,840.9Z"/><polygon class="cls-4" points="6517.13 19.83 6517.13 924.44 6426.37 924.36 6313.19 924.27 6273.59 924.24 6270.43 924.24 6135.88 702.34 6066.09 587.26 6065.98 587.07 6004.68 485.98 6004.68 924.33 5940.11 924.27 5761.13 924.13 5761.13 19.83 6002.94 19.83 6004.68 22.68 6073.81 136.7 6138.17 242.83 6138.37 243.15 6212.39 365.21 6212.45 365.32 6273.59 466.14 6273.59 19.83 6517.13 19.83"/><path class="cls-4" d="M6517.13,19.83V924.44l-90.76-.08-113.18-.09-39.6,0h-3.16l-134.55-221.9-69.79-115.08-.11-.19L6004.67,486V924.33l-64.56-.06-179-.14V19.83h241.81l1.73,2.85,69.14,114,64.36,106.13.2.32,74,122.06.07.11,61.14,100.82V19.83h243.54m0-19.33H6273.59a19.33,19.33,0,0,0-19.33,19.33V397L6229,355.4l-.13-.22-74-122-.08-.14-.16-.26-64.32-106-69.13-114-1.74-2.86A19.33,19.33,0,0,0,6002.94.5H5761.13a19.33,19.33,0,0,0-19.33,19.33v904.3a19.33,19.33,0,0,0,19.32,19.33l179,.14,64.57.06h0A19.34,19.34,0,0,0,6024,924.33V555.14L6049.4,597l.07.12.09.15,69.79,115.08L6253.9,934.26a19.35,19.35,0,0,0,16.5,9.31h3.15l39.62,0,113.18.09,90.76.08h0a19.32,19.32,0,0,0,19.33-19.33V19.83A19.33,19.33,0,0,0,6517.13.5Z"/></g></g></svg>